<svg width="1250" height="770" viewBox="0 0 1250 770" fill="none" xmlns="http://www.w3.org/2000/svg">
<g clip-path="url(#clip0_1433_2)">
<path d="M1112.29 -0.0703125C1090.57 -0.0703125 1070.17 3.32632 1051.06 10.1213C1032.23 16.6643 1015.73 25.9721 1001.54 38.0515C987.644 50.1312 976.635 64.478 968.527 81.0874C960.709 97.4454 956.805 115.312 956.805 134.689C956.805 154.067 960.709 172.057 968.527 188.666C976.635 205.024 987.932 219.248 1002.41 231.327C1016.89 243.407 1033.68 252.848 1052.79 259.643C1071.9 266.438 1092.61 269.835 1114.9 269.835C1134.01 269.835 1151.67 267.187 1167.88 261.902C1184.1 256.365 1198.29 248.689 1210.45 238.875C1222.9 228.808 1232.6 216.986 1239.55 203.397C1246.49 189.555 1249.97 174.449 1249.97 158.091C1249.97 155.826 1249.83 153.435 1249.54 150.919C1249.54 148.15 1249.4 145.514 1249.1 142.997C1248.81 140.229 1248.53 137.837 1248.24 135.824H1114.46V164.889H1214.36V170.553C1214.36 180.367 1211.9 189.552 1206.98 198.108C1202.05 206.665 1195.1 214.218 1186.12 220.761C1177.15 227.052 1166.58 231.958 1154.42 235.481C1142.55 239.004 1129.81 240.759 1116.21 240.759C1098.83 240.759 1082.62 238.122 1067.56 232.837C1052.5 227.552 1039.18 220.133 1027.6 210.569C1016.3 200.755 1007.47 189.425 1001.1 176.59C995.02 163.504 991.98 149.537 991.98 134.689C991.98 119.338 995.02 105.248 1001.1 92.4136C1007.18 79.3274 1015.73 68.1207 1026.73 58.8094C1037.73 49.2464 1050.47 41.8271 1064.95 36.5421C1079.71 31.2572 1095.64 28.6202 1112.73 28.6202C1123.73 28.6202 1134.73 30.1284 1145.73 33.1486C1157.02 36.1684 1167.74 40.3141 1177.88 45.5988C1188.01 50.8838 1197.13 57.1745 1205.24 64.4726L1227.82 44.4642C1220.29 35.9076 1210.44 28.2424 1198.28 21.4474C1186.12 14.6527 1172.52 9.36759 1157.46 5.59289C1142.7 1.81798 1127.64 -0.0703125 1112.29 -0.0703125ZM446.702 1.81486V266.057H529.091V203.012C529.091 178.602 528.44 157.595 527.121 139.979C527.012 138.315 526.903 136.656 526.789 135.001L577.03 210.57H603.173L688.527 126.008C688.005 131.284 687.543 136.566 687.157 141.863C686.101 159.983 685.573 180.363 685.573 203.012V266.057H735.074V1.81486H696.663L595.701 118.622L520.377 1.81486H446.702ZM743.349 1.81486V266.057H1038.4C1032.04 264.439 1025.87 262.305 1019.89 259.644C1004.64 252.849 991.219 243.408 979.661 231.328C976.668 228.2 973.855 224.926 971.203 221.511H790.935V152.815H944.215C943.58 146.913 943.262 140.873 943.262 134.691C943.262 125.815 943.924 117.26 945.232 109.019H790.935V46.36H971.985C974.202 43.4827 976.534 40.7104 978.976 38.0525C990.302 25.9731 1003.47 16.6655 1018.5 10.1223C1026.06 6.75715 1033.87 4.23079 1041.93 2.53207V1.8153L743.349 1.81486ZM434.241 3.96667L323.697 104.683C323.697 104.683 217.754 190.08 216.536 190.08C215.754 190.08 181.101 160.518 139.521 124.392C97.9416 88.2654 51.9247 129.452 31.3534 118.022L0.725407 101.001L0.383764 225.162L0.03125 630.265L79.2406 700.172C89.7474 709.444 97.0962 715.865 106.325 723.981V654.577L106.28 654.532L105.285 358.324L104.288 246.185L160.523 295.344L216.759 344.503L272.395 295.355L328.02 246.195V357.682L328.144 529.129L316.24 529.148L304.346 529.167L303.97 397.394L303.595 304.375L260.473 341.886C236.759 362.518 216.91 379.398 216.367 379.398C215.824 379.398 196.073 362.742 172.475 342.389C148.876 322.037 129.154 305.246 128.647 305.081C128.14 304.916 127.727 345.844 127.727 396.045C127.727 444.676 127.362 655.551 126.902 668.658V742.087C145.35 758.258 158.904 770.067 159.125 770.071C159.5 770.078 159.674 722.899 159.467 665.233C159.26 607.566 159.474 376.315 159.928 376.315C160.382 376.315 172.55 386.381 186.98 398.689C201.41 410.997 214.253 421.576 215.51 422.198C217.339 423.101 223.163 418.683 244.64 400.124L271.489 376.925L272.185 481.774L272.881 547.869L353.482 547.656L365.14 547.611V528.416H365.366C364.798 522.333 364.146 369.691 363.964 291.28L363.609 145.818L290.416 209.279C250.158 244.18 216.734 272.581 216.142 272.398C215.55 272.213 170.524 231.857 142.553 208.851C82.3434 159.329 69.6767 242.509 69.2313 242.509C68.7813 242.573 67.6652 248.713 68.0753 291.197L67.7208 620.86L56.2018 610.625L44.6934 600.391V251.876C44.6934 203.336 45.7475 186.926 45.8929 184.732C46.2992 178.861 84.8852 121.295 131.076 161.661C177.266 202.028 215.672 235.238 216.42 235.465C217.167 235.692 256.097 202.156 302.919 160.933C378.769 94.1543 388.047 86.3664 388.059 89.582C388.062 91.5666 388.062 166.182 388.052 255.387L387.398 528.418H387.544V547.538L434.08 547.414L433.469 225.363C433.129 104.017 434.24 3.95393 434.24 3.95393L434.241 3.96667ZM447.377 272.426V542.503H677.179V523.212H467.492V412.86H676.569V393.58H467.492V291.718H677.222V272.426H447.377ZM686.001 272.426V542.503H737.9L737.525 437.943C737.506 434.125 737.506 430.614 737.48 426.755C737.48 422.64 737.461 418.143 737.388 413.256C737.37 408.369 737.325 402.323 737.264 395.121C737.201 387.662 737.119 378.913 737.007 368.882C736.962 363.598 736.898 356.228 736.843 349.859L956.175 542.503H1004.05V272.426H952.15V353.456C952.15 364.516 952.169 375.059 952.214 385.09C952.259 394.864 952.305 404.254 952.338 413.256C952.447 422.259 952.524 430.868 952.606 439.099C952.73 447.329 952.884 455.309 953.012 463.026C953.058 465.624 953.822 468.198 954.833 470.766L733.07 272.426H686.001ZM1010.33 272.426V542.503H1120.07C1138.84 542.503 1156.06 539.159 1171.74 532.472C1187.42 525.784 1201.08 516.523 1212.72 504.691C1224.36 492.602 1233.26 478.32 1239.44 461.859C1245.85 445.14 1249.06 427.012 1249.06 407.464C1249.06 387.659 1245.85 369.521 1239.44 353.059C1233.26 336.598 1224.36 322.455 1212.72 310.623C1201.08 298.534 1187.42 289.145 1171.74 282.457C1156.06 275.77 1138.84 272.426 1120.07 272.426H1010.33ZM1087.29 343.414H1118.3C1126.13 343.414 1133.26 345.092 1139.67 348.435C1146.09 351.521 1151.67 355.89 1156.42 361.549C1161.17 367.207 1164.85 374.023 1167.47 381.996C1170.08 389.713 1171.38 398.205 1171.38 407.464C1171.38 416.724 1170.08 425.344 1167.47 433.318C1164.85 441.034 1161.17 447.721 1156.42 453.38C1151.67 459.038 1146.09 463.536 1139.67 466.879C1133.26 469.966 1126.13 471.504 1118.3 471.504H1087.29V343.414Z" fill="url(#paint0_linear_1433_2)"/>
</g>
<defs>
<linearGradient id="paint0_linear_1433_2" x1="0.029694" y1="385.003" x2="1249.97" y2="385.003" gradientUnits="userSpaceOnUse">
<stop stop-color="#2A008D"/>
<stop offset="0.467642" stop-color="#7E61FF"/>
<stop offset="1" stop-color="#985ED0"/>
</linearGradient>
<clipPath id="clip0_1433_2">
<rect width="1250" height="770" fill="white"/>
</clipPath>
</defs>
</svg>
